<svg id="Слой_1" data-name="Слой 1" xmlns="http://www.w3.org/2000/svg" viewBox="0 0 30 30"><defs><style>.cls-1{fill:#4285f4;}.cls-2{fill:#34a853;}.cls-3{fill:#fbbc04;}.cls-4{fill:#ea4335;}</style></defs><title>Google-Search-Logo</title><path class="cls-1" d="M27.74282,15.299a15.28842,15.28842,0,0,0-.2245-2.64147H15.25674V17.6634h7.02163a6.01707,6.01707,0,0,1-2.59848,3.95026v3.2481H23.869A12.69582,12.69582,0,0,0,27.74282,15.299Z"/><path class="cls-2" d="M15.25674,28a12.444,12.444,0,0,0,8.617-3.13824l-4.18909-3.2481A7.88438,7.88438,0,0,1,7.96285,17.49144H3.64v3.34841A13.00132,13.00132,0,0,0,15.25674,28Z"/><path class="cls-3" d="M7.95807,17.49144a7.78652,7.78652,0,0,1,0-4.97723V9.1658H3.64a13.01069,13.01069,0,0,0,0,11.674Z"/><path class="cls-4" d="M15.25674,7.14529a7.0642,7.0642,0,0,1,4.98679,1.94886h0L23.955,5.38272a12.49387,12.49387,0,0,0-8.69822-3.38184A12.997,12.997,0,0,0,3.64,9.1658l4.31806,3.34841A7.77558,7.77558,0,0,1,15.25674,7.14529Z"/></svg>