<svg id="Слой_1" data-name="Слой 1" xmlns="http://www.w3.org/2000/svg" viewBox="0 0 30 30"><defs><style>.cls-1{fill:#0ba25e;}.cls-2{fill:#fccd48;}.cls-3{fill:#089156;}.cls-4{fill:#10985b;}.cls-5{fill:#f9c941;}.cls-6{fill:#e3b73a;}.cls-7{fill:#e8b835;}.cls-8{fill:#296ad9;}.cls-9{fill:#2a71e9;}.cls-10{fill:#286ee6;}</style></defs><title>Google-Drive-Logo</title><path class="cls-1" d="M9.75681,2.02678l.02582-.00058L9.785,2.055l-.03287.00117Z"/><path class="cls-1" d="M9.65644,2.2193c.02289-.03287.0675-.09861.09039-.13148l.04109-.00645a7.89046,7.89046,0,0,0,.22186,1.09289c.35334,1.57361.71021,3.146,1.08174,4.71494.24359,1.07587.51534,2.14647.73838,3.22645.19369.66853.29758,1.35819.48482,2.0279.12091.62451.31049,1.23376.412,1.86179-.04109.06867-.08218.13793-.12385.2066-.01.01585-.03111.04872-.04109.06516l-.01526.02641-.01056.01937c-.02289.04226-.06867.12619-.09156.16786l-.01761.03053-.04168.07395-.01995.03463-.04872.08511-.01056.01878-.06046.10565-.02113.037-.02348.03932-.05928.10213-.01878.0317-.03639.06163-.02465.04284c-.02348.0405-.06985.1215-.09333.16259l-.017.02934-.037.06163c-.00587.01116-.01878.03229-.02524.04344-.02171.03815-.06632.11387-.088.152l-.02054.0358-.044.07924-.01644.02876-.04519.07924-.01878.03287c-.02348.03873-.06926.1168-.09215.15612l-.02113.03639-.04168.07513-.01526.02759-.04813.08335-.017.02934-.098.16846-.01819.03052-.03522.05811-.02407.04167-.08862.15437-.01527.027-.04812.08569-.01409.02524-.0493.08628-.01644.027c-.02289.03874-.06926.115-.09215.15378-.00646.01-.0182.03111-.02465.04167l-.03463.06457-.01761.03228L10.784,18.368l-.01995.03521-.01937.03346c-.09919.16728-.189.33984-.29876.50066-.62509,1.01953-1.2003,2.07075-1.80544,3.1026Q7.16662,24.59046,5.694,27.141c-.14733.26471-.31519.51827-.442.79473l-.02583.03756c-.23537-.33925-.41732-.71373-.63273-1.06589Q3.11961,24.3551,1.6458,21.80276C1.09994,20.84546.53119,19.89988,0,18.93377Q3.15543,13.48838,6.29735,8.03418l.00763-.0135.05752-.09861.01-.01643.0581-.0992c.00529-.0088.01585-.02758.02172-.03639l.02348-.04167.05811-.1033.01643-.02818.04343-.06926.03053-.04578c.02113-.03169.064-.09567.08569-.12737l.0088-.04108.05107-.098L6.77923,7.199l.05869-.0986L6.8614,7.061l.02642-.04578.0493-.08628.02113-.03639.04108-.0722.01879-.03228c.02289-.03932.06867-.118.09215-.1573l.01878-.03287.04285-.07806L7.186,6.4952l.05635-.0986.02935-.04755.03815-.05752.03228-.04578.02935-.04695.03169-.06105L7.446,6.04619,7.47828,6.001l.02289-.03229c.02172-.01819.06574-.05576.08746-.07454L7.58452,5.8255l.01585-.03287.04989-.09919.01643-.02876.044-.07161.03229-.047c.01995-.03287.06045-.09743.08041-.12971L7.84571,5.37l.03111-.0675.03932-.07161.03874-.05517.03287-.04461.02876-.04695.02876-.06046.02642-.05459.05047-.09743c.00763-.01174.02231-.03639.02935-.04872l.03874-.05752.03287-.04578.02934-.04754.02994-.061c.0088-.017.02582-.05048.034-.0675l.03991-.06574.02877-.04461c.02113-.03287.064-.0986.08569-.13089l.01-.03991L8.53185,4.165l.00881-.01585.05869-.10037.02289-.03932.02289-.03874.0587-.10272.00939-.017.05517-.09567L8.779,3.73773,8.83824,3.638l.02113-.03639.02348-.04109.05634-.09919.01409-.02465.04754-.07689.02994-.0452c.02171-.03228.064-.09684.08569-.12913l.0088-.03991.04989-.09567.017-.02935.0446-.06984c.00822-.01116.02348-.03405.0317-.04579L9.35064,2.774l.01115-.03757.05165-.09685.0094-.0176.05986-.101.02055-.03522.02113-.03815.05869-.10447.01-.017.05576-.0945Z"/><path class="cls-2" d="M9.78263,2.0262C11.689,2.01739,13.596,2.025,15.503,2.02209c1.57772.00587,3.1566-.01233,4.73373.0088.0311.05987.0628.11915.09625.17843l.0182.03228c.15261.26589.30756.5306.45841.79708l.01056.01761q.43845.75276.87044,1.509l.01.017c.05224.0898.10624.1796.15965.27l.01819.0317q.11006.19369.22187.38621l.01.017c.07454.12795.14791.25708.22186.38621l.0182.03052c.07454.12561.14674.25239.21834.37917l.0182.03111Q23.63809,7.9297,24.6852,9.74747c-.07982.35159.11328.7014.00587,1.05475a4.84008,4.84008,0,0,1-1.03068,2.66356c-.19545.21189-.00587.506-.027.75716a4.84539,4.84539,0,0,1-.73779.6521c.00059.19252.00118.385-.00763.57814-.22832.15085-.4901.2383-.72194.38386-.02466.07807-.04989.15672-.074.236-.18606.088-.385.145-.5711.2342-.73661-.21131-1.4656-.44667-2.20046-.66443-.68379-.226-1.384-.40323-2.06077-.65209l-.03874-.06926-.01232-.02113-.05576-.0945-.02348-.03991-.01995-.03463c-.04168-.074-.07983-.14968-.11387-.22715l-.00352-.00763-.00411-.00587c-.02583-.04109-.07807-.12385-.10448-.16493l-.01174-.01937-.017-.027-.0405-.0675c-.02524-.04285-.0763-.12854-.10154-.17139l-.02524-.04285-.0358-.061-.01878-.03228-.05694-.098-.01-.017-.05987-.10272-.02113-.037-.02406-.04284-.04872-.0857-.02347-.04108-.03757-.06633-.02054-.03522c-.02289-.04226-.06926-.12619-.09274-.16845l-.01056-.01937-.01585-.02759-.044-.06573c-.05811-.09744-.1127-.19722-.16494-.29758l-.01056-.01937-.01526-.027-.04461-.06281-.1033-.18547-.01115-.02-.01585-.02817-.04637-.07689-.05048-.08511-.01995-.03345c-.02231-.03874-.0675-.11681-.09039-.15555l-.02055-.03639c-.03991-.06632-.07806-.13323-.11562-.20015l-.01233-.02113-.05576-.09567c-.00587-.00939-.017-.02817-.02231-.03815l-.02054-.03522-.05928-.1033-.01115-.01937-.04813-.08628-.01585-.02758c-.0223-.03933-.0675-.11739-.0898-.15672l-.01878-.03169c-.03639-.06046-.07278-.1215-.108-.182q-2.4414-4.23657-4.88868-8.46963a4.6429,4.6429,0,0,0-.31988-.52121L9.785,2.055Z"/><path class="cls-3" d="M9.75211,2.05613,9.785,2.055l.00294.02641-.04109.00645Z"/><path class="cls-3" d="M9.78792,2.08137a4.6429,4.6429,0,0,1,.31988.52121q2.4467,4.23393,4.88868,8.46963-1.13046,1.96861-2.26972,3.93313c-.10155-.628-.29113-1.23728-.412-1.86179-.18724-.66971-.29113-1.35937-.48482-2.0279-.223-1.08-.49479-2.15058-.73838-3.22645-.37153-1.56891-.7284-3.14133-1.08174-4.71494A7.89046,7.89046,0,0,1,9.78792,2.08137Z"/><path class="cls-3" d="M9.64881,2.23163l.00763-.01233Z"/><path class="cls-3" d="M9.58307,2.34315l.01-.017Z"/><path class="cls-3" d="M9.50325,2.48577l.02113-.03815Z"/><path class="cls-3" d="M9.4827,2.521l.02055-.03522Z"/><path class="cls-3" d="M9.41344,2.63955l.0094-.0176Z"/><path class="cls-3" d="M9.35064,2.774l.01115-.03757Z"/><path class="cls-3" d="M9.26847,2.90485,9.35064,2.774Z"/><path class="cls-3" d="M9.23677,2.95064c.00822-.01116.02348-.03405.0317-.04579C9.26025,2.91659,9.245,2.93948,9.23677,2.95064Z"/><path class="cls-3" d="M9.17514,3.04983l.017-.02935Z"/><path class="cls-3" d="M9.11645,3.18541l.0088-.03991Z"/><path class="cls-3" d="M9.03076,3.31454c.02171-.03228.064-.09684.08569-.12913C9.09473,3.2177,9.05247,3.28226,9.03076,3.31454Z"/><path class="cls-3" d="M9.00082,3.35974l.02994-.0452Z"/><path class="cls-3" d="M8.93919,3.46128l.01409-.02465Z"/><path class="cls-3" d="M8.85937,3.60156l.02348-.04109Z"/><path class="cls-3" d="M8.83824,3.638l.02113-.03639Z"/><path class="cls-3" d="M8.76839,3.75534,8.779,3.73773Z"/><path class="cls-3" d="M8.70383,3.868l.00939-.017Z"/><path class="cls-3" d="M8.62224,4.00949l.02289-.03874Z"/><path class="cls-3" d="M8.59935,4.04881l.02289-.03932Z"/><path class="cls-3" d="M8.53185,4.165l.00881-.01585Z"/><path class="cls-3" d="M8.47081,4.30237l.01-.03991Z"/><path class="cls-3" d="M8.38512,4.43326c.02113-.03287.064-.0986.08569-.13089C8.44909,4.33466,8.40625,4.40039,8.38512,4.43326Z"/><path class="cls-3" d="M8.35635,4.47787l.02877-.04461Z"/><path class="cls-3" d="M8.2824,4.61111c.0088-.017.02582-.05048.034-.0675C8.30822,4.56063,8.2912,4.59409,8.2824,4.61111Z"/><path class="cls-3" d="M8.22312,4.71969l.02934-.04754Z"/><path class="cls-3" d="M8.19025,4.76547l.03287-.04578Z"/><path class="cls-3" d="M8.12216,4.87171c.00763-.01174.02231-.03639.02935-.04872C8.14447,4.83532,8.12979,4.86,8.12216,4.87171Z"/><path class="cls-3" d="M8.04527,5.02373l.02642-.05459Z"/><path class="cls-3" d="M7.98775,5.13114l.02876-.04695Z"/><path class="cls-3" d="M7.95488,5.17575l.03287-.04461Z"/><path class="cls-3" d="M7.87682,5.30253l.03932-.07161Z"/><path class="cls-3" d="M7.82341,5.4164,7.84571,5.37Z"/><path class="cls-3" d="M7.743,5.54611c.01995-.03287.06045-.09743.08041-.12971C7.80345,5.44868,7.763,5.51324,7.743,5.54611Z"/><path class="cls-3" d="M7.71071,5.59307l.03229-.047Z"/><path class="cls-3" d="M7.65026,5.69344l.01643-.02876Z"/><path class="cls-3" d="M7.58452,5.8255l.01585-.03287Z"/><path class="cls-3" d="M7.50117,5.96871c.02055-.0358.06222-.10741.08335-.14321l.00411.06867C7.56691,5.913,7.52289,5.95052,7.50117,5.96871Z"/><path class="cls-3" d="M7.47828,6.001l.02289-.03229Z"/><path class="cls-3" d="M7.40315,6.13775,7.446,6.04619Z"/><path class="cls-3" d="M7.34211,6.24575l.02935-.04695Z"/><path class="cls-3" d="M7.30983,6.29153l.03228-.04578Z"/><path class="cls-3" d="M7.24233,6.3966l.02935-.04755Z"/><path class="cls-3" d="M7.1719,6.51986,7.186,6.4952Z"/><path class="cls-3" d="M7.11027,6.63079l.01878-.03287Z"/><path class="cls-3" d="M6.99933,6.82037l.01879-.03228Z"/><path class="cls-3" d="M6.93712,6.929l.02113-.03639Z"/><path class="cls-3" d="M6.8614,7.061l.02642-.04578Z"/><path class="cls-3" d="M6.83792,7.10035,6.8614,7.061Z"/><path class="cls-3" d="M6.76984,7.21539,6.77923,7.199Z"/><path class="cls-3" d="M6.71,7.35449l.0088-.04108Z"/><path class="cls-3" d="M6.62428,7.48186c.02113-.03169.064-.09567.08569-.12737C6.68825,7.38619,6.64541,7.45017,6.62428,7.48186Z"/><path class="cls-3" d="M6.59375,7.52764l.03053-.04578Z"/><path class="cls-3" d="M6.53389,7.62508l.01643-.02818Z"/><path class="cls-3" d="M6.4523,7.77005l.02348-.04167Z"/><path class="cls-3" d="M6.43058,7.80644c.00529-.0088.01585-.02758.02172-.03639C6.44643,7.77886,6.43587,7.79764,6.43058,7.80644Z"/><path class="cls-3" d="M6.3625,7.92207l.01-.01643Z"/><path class="cls-3" d="M6.29735,8.03418l.00763-.0135Z"/><path class="cls-3" d="M12.56182,15.2771c.01-.01644.03111-.04931.04109-.06516C12.59293,15.22779,12.5718,15.26066,12.56182,15.2771Z"/><path class="cls-3" d="M12.536,15.32288l.01056-.01937Z"/><path class="cls-3" d="M12.42683,15.52127l.01761-.03053Z"/><path class="cls-3" d="M12.3652,15.62985l.01995-.03463Z"/><path class="cls-3" d="M12.30592,15.73374l.01056-.01878Z"/><path class="cls-3" d="M12.22433,15.87637l.02113-.037Z"/><path class="cls-3" d="M12.20085,15.91569l.02348-.03932Z"/><path class="cls-3" d="M12.12279,16.04952l.01878-.0317Z"/><path class="cls-3" d="M12.06175,16.154l.02465-.04284Z"/><path class="cls-3" d="M11.9514,16.34592l.017-.02934Z"/><path class="cls-3" d="M11.88918,16.451c.00646-.01115.01937-.03228.02524-.04344C11.90855,16.41871,11.89564,16.43984,11.88918,16.451Z"/><path class="cls-3" d="M11.7806,16.63881l.02054-.0358Z"/><path class="cls-3" d="M11.72014,16.74681l.01644-.02876Z"/><path class="cls-3" d="M11.65617,16.85892l.01878-.03287Z"/><path class="cls-3" d="M11.54289,17.05143,11.564,17.015Z"/><path class="cls-3" d="M11.486,17.15415l.01526-.02759Z"/><path class="cls-3" d="M11.4208,17.26684l.017-.02934Z"/><path class="cls-3" d="M11.30459,17.46582l.01819-.03052Z"/><path class="cls-3" d="M11.2453,17.5656l.02407-.04167Z"/><path class="cls-3" d="M11.14141,17.747l.01527-.027Z"/><path class="cls-3" d="M11.0792,17.8579l.01409-.02524Z"/><path class="cls-3" d="M11.01346,17.97118l.01644-.027Z"/><path class="cls-3" d="M10.89666,18.16663c.00645-.01056.01819-.03169.02465-.04167C10.91485,18.13494,10.90311,18.15607,10.89666,18.16663Z"/><path class="cls-3" d="M10.84442,18.26348l.01761-.03228Z"/><path class="cls-3" d="M10.764,18.40317,10.784,18.368Z"/><path class="cls-3" d="M10.74464,18.43663l.01937-.03346Z"/><path class="cls-4" d="M20.333,2.20932l.0182.03228Z"/><path class="cls-4" d="M20.8096,3.03868l.01056.01761Z"/><path class="cls-4" d="M21.6906,4.56533l.01.017Z"/><path class="cls-4" d="M21.86023,4.85234l.01819.0317Z"/><path class="cls-4" d="M22.10029,5.27025l.01.017Z"/><path class="cls-4" d="M22.33213,5.67348l.0182.03052Z"/><path class="cls-4" d="M22.56867,6.08317l.0182.03111Z"/><path class="cls-5" d="M24.6852,9.74747c1.0207,1.76847,2.04786,3.534,3.06034,5.30776l.01878.03169c.02348.03874.07043.11563.09333.15379l.01878.0311.047.08041.01233.02172.05869.10213.0229.0405.02112.03639.05753.09978.00939.01644.05752.0986.00939.01585.05752.09978.02289.03933.02172.03874.05928.10447.03287.08041.01643.03228.00763.017.01292.017.03463.05224.04871.07747.02935.047.03874.06163.047.10624.01761.03169.00646.01233.00528.00763c.02583.03815.07689.115.10272.15319l.02641.04226.03522.05869.02113.03639.05928.1039.02113.03756.02113.037.05869.10036.01057.01761.05341.09392.01409.02406.054.0945.02523.04285.02172.03756c.04343.07219.08511.14556.12385.22069.00587.01233.01761.037.02289.0493l.027.061.02758.04754.03463.04519.0405.05753.02876.04519.05928.10272.02114.03756.02171.037.0587.101.00939.017.05576.09744.00939.01584.05693.0992.02348.0405.02289.03991.0587.101.0088.01644.06222.11621-.00059.05283c-1.46854-.422-2.9136-.92268-4.38625-1.32943-1.33648-.43141-2.68528-.82408-4.02176-1.25313.18607-.08922.385-.14615.5711-.2342.02407-.07923.0493-.15788.074-.236.23184-.14556.49362-.233.72194-.38386.00881-.19311.00822-.38562.00763-.57814a4.84539,4.84539,0,0,0,.73779-.6521c.02113-.25121-.16845-.54527.027-.75716a4.84008,4.84008,0,0,0,1.03068-2.66356C24.79848,10.44887,24.60538,10.09906,24.6852,9.74747Z"/><path class="cls-5" d="M29.929,18.88975l.03052.00117.017.04461-.03463.00235Z"/><path class="cls-6" d="M15.10448,11.25417l.01878.03169Z"/><path class="cls-6" d="M15.21306,11.44258l.01585.02758Z"/><path class="cls-6" d="M15.277,11.55644l.01115.01937Z"/><path class="cls-6" d="M15.34747,11.67911l.02054.03522Z"/><path class="cls-6" d="M15.368,11.71433c.00529.01.01644.02876.02231.03815C15.38445,11.74309,15.3733,11.72431,15.368,11.71433Z"/><path class="cls-6" d="M15.44608,11.84815l.01233.02113Z"/><path class="cls-6" d="M15.574,12.06943l.02055.03639Z"/><path class="cls-6" d="M15.685,12.26137l.01995.03345Z"/><path class="cls-6" d="M15.7554,12.37993l.04637.07689Z"/><path class="cls-6" d="M15.81762,12.485l.01115.02Z"/><path class="cls-6" d="M15.93207,12.69042l.04461.06281Z"/><path class="cls-6" d="M15.99194,12.78023l.01056.01937Z"/><path class="cls-6" d="M16.16744,13.09718l.044.06573Z"/><path class="cls-6" d="M16.22731,13.1905l.01056.01937Z"/><path class="cls-6" d="M16.33061,13.37832l.02054.03522Z"/><path class="cls-6" d="M16.38872,13.47987l.02347.04108Z"/><path class="cls-6" d="M16.46091,13.60665l.02406.04284Z"/><path class="cls-6" d="M16.485,13.64949l.02113.037Z"/><path class="cls-6" d="M16.566,13.78919l.01.017Z"/><path class="cls-6" d="M16.63289,13.90423l.01878.03228Z"/><path class="cls-6" d="M16.68747,13.99755l.02524.04285Z"/><path class="cls-6" d="M16.81425,14.21179l.0405.0675Z"/><path class="cls-6" d="M16.87177,14.30629l.01174.01937Z"/><path class="cls-6" d="M16.988,14.49059l.00411.00587.00352.00763Z"/><path class="cls-6" d="M17.10949,14.73124l.01995.03463Z"/><path class="cls-6" d="M17.12944,14.76587l.02348.03991Z"/><path class="cls-6" d="M17.20868,14.90028l.01232.02113Z"/><path class="cls-6" d="M17.25974,14.99067c.67675.24886,1.377.42612,2.06077.65209.73486.21776,1.46385.45312,2.20046.66443,1.33648.42905,2.68528.82172,4.02176,1.25313a4.82164,4.82164,0,0,1-.03463.85929c-.05459.27293-.38093.31577-.51534.53353-1.806.00059-3.61148.00587-5.41693-.00176l-.03874-.00294C18.79109,17.62195,18.01514,16.31188,17.25974,14.99067Z"/><path class="cls-7" d="M27.74554,15.05523l.01878.03169Z"/><path class="cls-7" d="M27.85765,15.24071l.01878.0311Z"/><path class="cls-7" d="M27.92338,15.35222l.01233.02172Z"/><path class="cls-7" d="M27.9944,15.47607l.0229.0405Z"/><path class="cls-7" d="M28.0173,15.51657l.02112.03639Z"/><path class="cls-7" d="M28.096,15.65274l.00939.01644Z"/><path class="cls-7" d="M28.16286,15.76778l.00939.01585Z"/><path class="cls-7" d="M28.22977,15.88341l.02289.03933Z"/><path class="cls-7" d="M28.25266,15.92274l.02172.03874Z"/><path class="cls-7" d="M28.33366,16.066l.03287.08041Z"/><path class="cls-7" d="M28.383,16.17864l.02055.034-.01292-.017Z"/><path class="cls-7" d="M28.43814,16.26493l.04871.07747Z"/><path class="cls-7" d="M28.48685,16.3424l.02935.047Z"/><path class="cls-7" d="M28.55494,16.451l.047.10624Z"/><path class="cls-7" d="M28.6195,16.58892l.01174.02-.00528-.00763Z"/><path class="cls-7" d="M28.734,16.76207l.02641.04226Z"/><path class="cls-7" d="M28.79559,16.863l.02113.03639Z"/><path class="cls-7" d="M28.876,17.00331l.02113.03756Z"/><path class="cls-7" d="M28.89713,17.04087l.02113.037Z"/><path class="cls-7" d="M28.977,17.17821l.01057.01761Z"/><path class="cls-7" d="M29.04093,17.28974l.01409.02406Z"/><path class="cls-7" d="M29.109,17.4083l.02523.04285Z"/><path class="cls-7" d="M29.13425,17.45115l.02172.03756Z"/><path class="cls-7" d="M25.54273,17.56032c1.47265.40675,2.91771.90742,4.38625,1.32943l.01291.04813c-1.64873.03756-3.29981.00646-4.94913.01526.13441-.21776.46075-.2606.51534-.53353A4.82164,4.82164,0,0,0,25.54273,17.56032Z"/><path class="cls-7" d="M29.27982,17.7094c.00587.01233.01761.037.02289.0493C29.29743,17.74638,29.28569,17.72173,29.27982,17.7094Z"/><path class="cls-7" d="M29.32971,17.81975l.02758.04754Z"/><path class="cls-7" d="M29.35729,17.86729l.03463.04519Z"/><path class="cls-7" d="M29.43242,17.97l.02876.04519Z"/><path class="cls-7" d="M29.52046,18.11792l.02114.03756Z"/><path class="cls-7" d="M29.5416,18.15548l.02171.037Z"/><path class="cls-7" d="M29.622,18.29341l.00939.017Z"/><path class="cls-7" d="M29.68716,18.40787l.00939.01584Z"/><path class="cls-7" d="M29.75348,18.52291l.02348.0405Z"/><path class="cls-7" d="M29.777,18.56341l.02289.03991Z"/><path class="cls-7" d="M29.85855,18.70427l.0088.01644Z"/><path class="cls-7" d="M29.92957,18.83692l.02993.054-.03052-.00117Z"/><path class="cls-8" d="M8.64044,22.03989c.60514-1.03185,1.18035-2.08307,1.80544-3.1026,3.03041.01115,6.0614-.017,9.09121.01115l.03874.00294c-1.53251.0493-3.06914-.01291-4.60166.02583-.29229.18841-.48716.49362-.76713.699-.26.18958-.45137.45371-.69964.6562-.34806.2565-.60691.61219-.96025.8634-.40851.43258-.87983.79707-1.29187,1.22731-.30873.23712-.567.53-.85459.7912-.31637.2295-.55877.54058-.85459.79414l-.02994.02641c-.01585.01233-.04695.03815-.0628.05048l-.02935.02465c-.233.18019-.41145.41791-.64036.60279l-.02935.02466-.02993.02465c-.334.2741-.60162.621-.952.87631-.35275.34982-.7507.65033-1.08585,1.01894-.49538.40734-.92385.888-1.43449,1.27837.12678-.27646.29464-.53.442-.79473Q7.16778,24.59047,8.64044,22.03989Z"/><path class="cls-8" d="M5.22617,27.97333l.02583-.03756-.00177.03815Z"/><path class="cls-9" d="M19.57583,18.95138c1.80545.00763,3.6109.00235,5.41693.00176,1.64932-.0088,3.3004.0223,4.94913-.01526l.03463-.00235L30,18.942v.00469q-2.61132,4.51392-5.21737,9.03193-9.76648-.00264-19.5324-.00469l.00177-.03815c.51064-.39032.93911-.871,1.43449-1.27837.33515-.36861.7331-.66912,1.08585-1.01894.35041-.25532.61806-.60221.952-.87631l.02993-.02465.02935-.02466c.22891-.18488.40734-.4226.64036-.60279l.02935-.02465c.01585-.01233.047-.03815.0628-.05048l.02994-.02641c.29582-.25356.53822-.56464.85459-.79414.2876-.26119.54586-.55408.85459-.7912.412-.43024.88336-.79473,1.29187-1.22731.35334-.25121.61219-.6069.96025-.8634.24827-.20249.43962-.46662.69964-.6562.28-.20543.47484-.51064.76713-.699C16.50669,18.93847,18.04332,19.00068,19.57583,18.95138Z"/><path class="cls-10" d="M9.51616,24.03492l.02994-.02641Z"/><path class="cls-10" d="M9.45336,24.0854c.01585-.01233.047-.03815.0628-.05048C9.50031,24.04725,9.46921,24.07307,9.45336,24.0854Z"/><path class="cls-10" d="M9.424,24.11005l.02935-.02465Z"/><path class="cls-10" d="M8.7543,24.7375l.02935-.02466Z"/><path class="cls-10" d="M8.72437,24.76215l.02993-.02465Z"/></svg>