<svg id="Слой_1" data-name="Слой 1" xmlns="http://www.w3.org/2000/svg" viewBox="0 0 30 30"><defs><style>.cls-1{fill:#4eb784;}.cls-2{fill:#48b481;}.cls-3{fill:#20a565;}.cls-4{fill:#1c9561;}.cls-5{fill:#ffd14a;}.cls-6{fill:#ffc61a;}.cls-7{fill:#ef6f65;}.cls-8{fill:#15915b;}.cls-9{fill:#ca493d;}.cls-10{fill:#ea473a;}.cls-11{fill:#74a5f7;}.cls-12{fill:#6fa1f6;}.cls-13{fill:#4e8df5;}.cls-14{fill:#ffc516;}.cls-15{fill:#fff;}.cls-16{fill:#c84034;}.cls-17{fill:#457ade;}.cls-18{fill:#4277de;}.cls-19{fill:#4076dd;}.cls-20{fill:#4378de;}.cls-21{fill:#4177dd;}.cls-22{fill:#3e75dd;}.cls-23{fill:#3d74dd;}.cls-24{fill:#3a72dc;}</style></defs><title>Google-News-Logo</title><path class="cls-1" d="M6.142,3.48278a.7647.7647,0,0,1,.745-.75587q4.46229.00048,8.9246.00032c.00767.04922.015.09812.02333.14734-.16044.00479-.32088-.00064-.481.00064l-.02109.03452a2.12,2.12,0,0,0-.3308-.01311q-4.02651.00144-8.05272.00288a.76878.76878,0,0,0-.53693.18377A1.09506,1.09506,0,0,0,6.142,3.48278Z"/><path class="cls-2" d="M15.81159,2.72723q3.655,0,7.30965,0a.76687.76687,0,0,1,.745.74756.98471.98471,0,0,0-.37425-.47813.839.839,0,0,0-.43338-.10132q-3.49966.0024-6.999.00352c-.24258.0032-.48515-.00959-.72677.01087l.02109-.03452c.16012-.00128.32056.00415.481-.00064C15.82661,2.82535,15.81926,2.77645,15.81159,2.72723Z"/><path class="cls-3" d="M6.41238,3.08327a.76878.76878,0,0,1,.53693-.18377Q10.97584,2.899,15.002,2.89662a2.12,2.12,0,0,1,.3308.01311c.24162-.02046.48419-.00767.72677-.01087q3.49919-.0024,6.999-.00352a.839.839,0,0,1,.43338.10132.98471.98471,0,0,1,.37425.47813c.00416,1.11094,0,2.2222.00192,3.33314-.481-.07447-.96616-.11953-1.44812-.18825q-2.07774-.26751-4.15516-.53246a.42431.42431,0,0,0-.17547.01982q-.1467-.03739-.29243-.078c-.20231-.5446-.39184-1.09464-.60022-1.63668a.74135.74135,0,0,0-.93036-.4369.75119.75119,0,0,0-.93165-.41612q-.96936.43576-1.94127.8658c-1.01058.46918-2.03779.90224-3.05157,1.36535-1.11989.497-2.236,1.00291-3.35743,1.497-.05466.03036-.14478.04059-.14766.11921-.23171.08693-.465.16907-.69706.25472.00192-1.38612-.00319-2.77256.00224-4.15867A1.09506,1.09506,0,0,1,6.41238,3.08327Z"/><path class="cls-4" d="M15.33474,3.53935a.75119.75119,0,0,1,.93165.41612q-4.715,1.71579-9.42958,3.43126c.00288-.07862.093-.08885.14766-.11921,1.12148-.49411,2.23754-1,3.35743-1.497,1.01378-.46311,2.041-.89617,3.05157-1.36535Q14.36475,3.97417,15.33474,3.53935Z"/><path class="cls-5" d="M16.26639,3.95547a.74135.74135,0,0,1,.93036.4369,1.7217,1.7217,0,0,0-.34741-.25537.67728.67728,0,0,0-.5152-.01885Q8.45033,6.997.56044,9.86014a.73236.73236,0,0,0-.41485.34645,1.12739,1.12739,0,0,0-.09332.4663A.758.758,0,0,1,.267,9.81731a1.28881,1.28881,0,0,1,.372-.17354q2.75036-1.001,5.50069-2.00232c.232-.08565.46535-.16779.69706-.25472Q11.55224,5.67286,16.26639,3.95547Z"/><path class="cls-6" d="M16.33414,4.11815a.67728.67728,0,0,1,.5152.01885,1.7217,1.7217,0,0,1,.34741.25537c.20838.542.39791,1.09208.60022,1.63668q.03738.1026.07446.20519c.37394,1.01889.73956,2.04067,1.11446,3.05892l.02749.0815h-.03644q-7.403.001-14.80658-.00032a.77159.77159,0,0,0-.75395.69258c-.007,1.40242-.00063,2.80516-.00319,4.20758a7.25385,7.25385,0,0,1-1.24581-.53214,9.40115,9.40115,0,0,1-1.1314-.6587q-.04268.02923-.08533.05944Q.502,11.90769.05227,10.67289a1.12739,1.12739,0,0,1,.09332-.4663.73236.73236,0,0,1,.41485-.34645Q8.45049,6.9981,16.33414,4.11815Z"/><path class="cls-7" d="M17.797,6.02905q.14572.04075.29243.078,2.88889.77951,5.77939,1.55519,2.79972.75313,5.59945,1.50629a.67036.67036,0,0,1,.38257.25568.82776.82776,0,0,1,.11473.71815.82691.82691,0,0,0-.21222-.62067,1.05079,1.05079,0,0,0-.55355-.24865q-5.307-1.42383-10.6137-2.84831c-.23715-.06807-.4743-.13615-.71464-.19048Q17.83452,6.13164,17.797,6.02905Z"/><path class="cls-8" d="M18.0894,6.107a.42431.42431,0,0,1,.17547-.01982q2.07726.268,4.15516.53246c.482.06872.96712.11378,1.44812.18825.00064.28476-.00032.56953.00064.8543Q20.97894,6.88511,18.0894,6.107Z"/><path class="cls-9" d="M17.87143,6.23424c.24034.05433.47749.12241.71464.19048.05049.473.13455.94155.20039,1.41233.06072.38384.1093.76929.17354,1.15217a1.97711,1.97711,0,0,1,.02589.30394C18.611,8.27491,18.24537,7.25313,17.87143,6.23424Z"/><path class="cls-10" d="M18.58607,6.42472Q23.89261,7.84951,29.19977,9.273a1.05079,1.05079,0,0,1,.55355.24865.82691.82691,0,0,1,.21222.62067q-1.61271,6.00694-3.21936,12.01517a5.06689,5.06689,0,0,1-.14574.50145c-.0032-.06488-.00575-.12912-.00416-.19368a1.43208,1.43208,0,0,0,.10451-.30777c.1972-.74084.39344-1.482.59383-2.22221a1.09038,1.09038,0,0,0,.07351-.42826c-.23459-1.46155-.48548-2.92086-.72007-4.3824a1.38661,1.38661,0,0,0-.0505-.17355c-.00767-1.63189.00448-3.26443-.00639-4.896a.7728.7728,0,0,0-.75235-.68076q-3.41287.00144-6.82544.00032l-.02749-.0815A1.97711,1.97711,0,0,0,18.96,8.98922c-.06424-.38288-.11282-.76833-.17354-1.15217C18.72062,7.36627,18.63656,6.89774,18.58607,6.42472Z"/><path class="cls-11" d="M3.41641,10.06692a.77159.77159,0,0,1,.75395-.69258q7.40345.001,14.80658.00032-.03692.08245-.07351.16492-7.368.00334-14.73563.00479a.75592.75592,0,0,0-.67372.43083C3.47522,10.011,3.45892,10.05286,3.41641,10.06692Z"/><path class="cls-12" d="M18.97694,9.37466h.03644q3.41287-.00192,6.82544-.00032a.7728.7728,0,0,1,.75235.68076l-.02717.0115a.81164.81164,0,0,0-.7255-.52958c-2.31169-.00064-4.62338.00543-6.93507.00256Q18.93987,9.45713,18.97694,9.37466Z"/><path class="cls-13" d="M3.49408,9.9752a.75592.75592,0,0,1,.67372-.43083q7.368.0024,14.73563-.00479c2.31169.00287,4.62338-.0032,6.93507-.00256a.81164.81164,0,0,1,.7255.52958l.02717-.0115c.01087,1.63157-.00128,3.26411.00639,4.896q-.00767,3.75709-.00128,7.51419c-.00159.06456.001.1288.00416.19368-.0147,1.30686.00128,2.61436-.00831,3.92154-.05913.01757-.08086.078-.109.12656a.759.759,0,0,1-.60916.39087c-2.26567.007-4.53165-.00479-6.797.00672-2.23115-.01055-4.46262-.00032-6.69378-.00352q-4.10754-.00048-8.21572.00032a.78052.78052,0,0,1-.589-.2902c-.0604-.07351-.08277-.17578-.16172-.23363-.0099-2.23115.0032-4.46262-.007-6.69377.00831-1.86968.00128-3.73968.00352-5.60936.00256-1.40242-.00384-2.80516.00319-4.20758.04251-.01406.05881-.05593.07767-.09172m5.18428,4.4575a4.13757,4.13757,0,0,0-1.09911.65455A4.06723,4.06723,0,0,0,6.52072,20.028a.19423.19423,0,0,0,.01438.147,3.98275,3.98275,0,0,0,.68939,1.00675,2.79817,2.79817,0,0,0,.51392.47461,4.16815,4.16815,0,0,0,3.555.72134A3.65319,3.65319,0,0,0,13.0467,21.416a3.46193,3.46193,0,0,0,.42188-.53917c-.04571-.00895-.09141-.0163-.13743-.0227a4.407,4.407,0,0,0,.70984-3.297q-1.92626,0-3.8525.00064.001.76608-.00032,1.53185l.0457.00064a.84161.84161,0,0,0,.01087.18345c.5641-.00287,1.12852.00032,1.69294.00032a2.1584,2.1584,0,0,1,.40877.01758,1.92223,1.92223,0,0,1-.70089.978,2.58864,2.58864,0,0,1-1.56446.44265A2.43472,2.43472,0,0,1,9.30415,20.54a2.49941,2.49941,0,0,1-1.25381-1.14258,2.45513,2.45513,0,0,1-.255-1.53665c.01566.101.024.203.03228.3049A2.50132,2.50132,0,0,1,9.02545,16.2749a2.31418,2.31418,0,0,1,2.631.15692c.05561.03676.12113.14958.18984.07447.40686-.39375.799-.80284,1.20363-1.19883a.20186.20186,0,0,0-.12273-.09269,5.178,5.178,0,0,0-.589-.45639,4.10769,4.10769,0,0,0-3.65978-.32568m7.30965-.28924c-.00671.57018-.00288,1.14035-.00192,1.71052l.01279.164c.2429.015.48643.00191.73.00575q2.74987.00336,5.49973.00415a.72487.72487,0,0,0,.41581-.06424.27779.27779,0,0,0,.13871-.334,7.75262,7.75262,0,0,0,.01949-.85366c-.01118-.17227.04315-.37873-.09077-.51648a.34338.34338,0,0,0-.29211-.11442q-3.21585-.001-6.4317-.0016M15.98513,17.389q-.00048.851,0,1.70221c.0032.0521.007.10419.01055.15661,2.5025.01342,5.00563.00287,7.50844.00895a.32973.32973,0,0,0,.31225-.23843c.01694-.04282.024-.10291-.02013-.132a.6053.6053,0,0,0,.0294-.21094c-.00159-.3097.001-.61939-.001-.92877a.34326.34326,0,0,0-.3522-.356q-3.74367-.00336-7.48735-.0016m0,3.23663q0,.85046.00032,1.70061c.00288.05944.00735.11889.01279.17865q3.16215.00672,6.32463.00991a.47773.47773,0,0,0,.39471-.12432.27542.27542,0,0,0,.06584-.287,1.01106,1.01106,0,0,0,.01949-.26335c-.0016-.288.00128-.57625-.00128-.86421a.3447.3447,0,0,0-.34836-.35Q19.2192,20.6231,15.98513,20.62566Z"/><path class="cls-14" d="M.95068,13.1431q.04266-.03019.08533-.05944a9.40115,9.40115,0,0,0,1.1314.6587,7.25385,7.25385,0,0,0,1.24581.53214c-.00224,1.86968.00479,3.73968-.00352,5.60936-.43753-1.16559-.85334-2.3395-1.28256-3.50829Q1.53842,14.7595.95068,13.1431Z"/><path class="cls-15" d="M8.67836,14.4327a4.10769,4.10769,0,0,1,3.65978.32568,5.178,5.178,0,0,1,.589.45639c-.30235.30746-.6098.60981-.91439.915a2.7799,2.7799,0,0,1-.25951.24641,2.30743,2.30743,0,0,0-2.65079-.34229A2.48143,2.48143,0,0,0,7.7953,17.86077a2.45513,2.45513,0,0,0,.255,1.53665A2.49941,2.49941,0,0,0,9.30415,20.54a2.43472,2.43472,0,0,0,.77695.17227,2.58864,2.58864,0,0,0,1.56446-.44265,1.92223,1.92223,0,0,0,.70089-.978,1.73692,1.73692,0,0,0,.05881-.19815c-.7239-.00639-1.44749,0-2.17139-.0032l-.0457-.00064q.0024-.76608.00032-1.53185,1.92625-.00288,3.8525-.00064a4.407,4.407,0,0,1-.70984,3.297,3.42741,3.42741,0,0,1-1.11606.97767,4.10609,4.10609,0,0,1-1.521.47014,4.343,4.343,0,0,1-1.71851-.16108,4.09362,4.09362,0,0,1-.29723-7.7082Z"/><path class="cls-15" d="M15.988,14.14346q3.21585.00528,6.4317.0016a.34338.34338,0,0,1,.29211.11442c.13392.13775.07959.34421.09077.51648a7.75262,7.75262,0,0,1-.01949.85366.3758.3758,0,0,1-.36435.224q-3.21633,0-6.43266.00032C15.98513,15.28381,15.9813,14.71364,15.988,14.14346Z"/><path class="cls-15" d="M15.98513,17.389q3.74369.0024,7.48735.0016a.34326.34326,0,0,1,.3522.356c.00192.30938-.00063.61907.001.92877a.6053.6053,0,0,1-.0294.21094.38074.38074,0,0,1-.35444.20454q-3.72834,0-7.45667.00032Q15.98465,18.24031,15.98513,17.389Z"/><path class="cls-15" d="M15.98513,20.62566q3.23407-.001,6.46814.00032a.3447.3447,0,0,1,.34836.35c.00256.288-.00032.57625.00128.86421a1.01106,1.01106,0,0,1-.01949.26335.34587.34587,0,0,1-.33335.22277q-3.23264-.00144-6.46462,0Q15.985,21.4758,15.98513,20.62566Z"/><path class="cls-16" d="M26.59756,14.9511a1.38661,1.38661,0,0,1,.0505.17355c.23459,1.46154.48548,2.92085.72007,4.3824a1.09038,1.09038,0,0,1-.07351.42826c-.20039.74021-.39663,1.48137-.59383,2.22221a1.43208,1.43208,0,0,1-.10451.30777Q26.59342,18.7082,26.59756,14.9511Z"/><path class="cls-17" d="M12.92717,15.21477a.20186.20186,0,0,1,.12273.09269c-.40462.396-.79677.80508-1.20363,1.19883-.06871.07511-.13423-.03771-.18984-.07447a2.31418,2.31418,0,0,0-2.631-.15692,2.50132,2.50132,0,0,0-1.19787,1.89077c-.00831-.10195-.01662-.20391-.03228-.3049a2.48143,2.48143,0,0,1,1.30718-1.82685,2.30743,2.30743,0,0,1,2.65079.34229,2.7799,2.7799,0,0,0,.25951-.24641C12.31737,15.82458,12.62482,15.52223,12.92717,15.21477Z"/><path class="cls-18" d="M22.7831,15.62962a.27779.27779,0,0,1-.13871.334.72487.72487,0,0,1-.41581.06424q-2.74986-.00383-5.49973-.00415c-.24354-.00384-.48707.00927-.73-.00575l-.01279-.164q3.21633-.00048,6.43266-.00032A.3758.3758,0,0,0,22.7831,15.62962Z"/><path class="cls-19" d="M23.79624,18.88638c.0441.02908.03707.08917.02013.132a.32973.32973,0,0,1-.31225.23843c-2.50281-.00608-5.00594.00447-7.50844-.00895-.00352-.05242-.00735-.10451-.01055-.15661q3.72834-.00048,7.45667-.00032A.38074.38074,0,0,0,23.79624,18.88638Z"/><path class="cls-20" d="M10.23387,19.09028c.7239.0032,1.44749-.00319,2.17139.0032a1.73692,1.73692,0,0,1-.05881.19815,2.1584,2.1584,0,0,0-.40877-.01758c-.56442,0-1.12884-.00319-1.69294-.00032A.84161.84161,0,0,1,10.23387,19.09028Z"/><path class="cls-21" d="M6.52072,20.028a4.10577,4.10577,0,0,0,2.45487,2.1129,4.343,4.343,0,0,0,1.71851.16108,4.10609,4.10609,0,0,0,1.521-.47014,3.42741,3.42741,0,0,0,1.11606-.97767c.046.0064.09172.01375.13743.0227a3.46193,3.46193,0,0,1-.42188.53917,3.65319,3.65319,0,0,1-1.75334.96168,4.16815,4.16815,0,0,1-3.55495-.72134,2.79817,2.79817,0,0,1-.51392-.47461A3.98275,3.98275,0,0,1,6.5351,20.175.19423.19423,0,0,1,6.52072,20.028Z"/><path class="cls-22" d="M22.45007,22.32627a.34587.34587,0,0,0,.33335-.22277.27542.27542,0,0,1-.06584.287.47773.47773,0,0,1-.39471.12432q-3.16263-.00479-6.32463-.00991c-.00544-.05976-.00991-.11921-.01279-.17865Q19.21761,22.32579,22.45007,22.32627Z"/><path class="cls-23" d="M3.41673,26.57763c.079.05785.10132.16012.16172.23363a.78052.78052,0,0,0,.589.2902q4.108,0,8.21572-.00032c2.23116.0032,4.46263-.007,6.69378.00352a2.48228,2.48228,0,0,1-.28061.16619q-7.26538.00671-14.53077.00224a.8604.8604,0,0,1-.38033-.06073A.75762.75762,0,0,1,3.41673,26.57763Z"/><path class="cls-24" d="M26.48314,26.70707c.02813-.04858.04986-.109.109-.12656a.77033.77033,0,0,1-.78463.69162q-3.50589,0-7.01113-.00128a2.48228,2.48228,0,0,0,.28061-.16619c2.26535-.01151,4.53133.00032,6.797-.00672A.759.759,0,0,0,26.48314,26.70707Z"/></svg>