<svg id="Слой_1" data-name="Слой 1" xmlns="http://www.w3.org/2000/svg" viewBox="0 0 30 30"><defs><style>.cls-1{fill:#e01e5a;}.cls-2{fill:#36c5f0;}.cls-3{fill:#2eb67d;}.cls-4{fill:#ecb22e;}</style></defs><title>Slack-Logo</title><path class="cls-1" d="M7.46254,18.43A2.73127,2.73127,0,1,1,4.73127,15.6987H7.46254Z"/><path class="cls-1" d="M8.83876,18.43a2.73127,2.73127,0,1,1,5.46254,0v6.83876a2.73127,2.73127,0,0,1-5.46254,0Z"/><path class="cls-2" d="M11.57,7.46254A2.73127,2.73127,0,1,1,14.3013,4.73127V7.46254Z"/><path class="cls-2" d="M11.57,8.83876a2.73127,2.73127,0,1,1,0,5.46254H4.73127a2.73127,2.73127,0,0,1,0-5.46254Z"/><path class="cls-3" d="M22.53746,11.57a2.73127,2.73127,0,1,1,2.73127,2.73127H22.53746Z"/><path class="cls-3" d="M21.16124,11.57a2.73127,2.73127,0,0,1-5.46254,0V4.73127a2.73127,2.73127,0,1,1,5.46254,0Z"/><path class="cls-4" d="M18.43,22.53746a2.73127,2.73127,0,1,1-2.73127,2.73127V22.53746Z"/><path class="cls-4" d="M18.43,21.16124a2.73127,2.73127,0,0,1,0-5.46254h6.83876a2.73127,2.73127,0,0,1,0,5.46254Z"/></svg>